<svg xmlns="http://www.w3.org/2000/svg" viewBox="0 0 1024 1024" width="1024" height="1024">
  <rect x="100" y="100" width="824" height="824" rx="184" ry="184" fill="#14233A"/>
  <g transform="translate(165.6,754.6) scale(0.6935)"><path d="M66.89-64.45Q66.89-93.75 88.13-114.50Q109.38-135.25 140.14-135.25Q170.90-135.25 192.38-114.50Q213.87-93.75 213.87-64.45Q213.87-35.16 192.38-12.70Q170.90 9.77 140.14 9.77Q109.38 9.77 88.13-12.70Q66.89-35.16 66.89-64.45M551.27 0L331.54 0Q323.24 0 319.09-7.32Q314.94-14.65 314.94-20.02Q314.94-36.13 331.05-38.09Q349.12-40.53 368.16-46.63Q387.21-52.73 387.21-68.36L387.70-379.88Q387.70-410.16 375-421.39Q362.30-432.62 345.21-434.81Q328.13-437.01 314.94-440.43Q310.06-442.87 306.64-446.78Q303.22-450.68 303.22-459.96Q303.22-465.82 306.15-473.39Q309.08-480.96 314.94-481.45Q367.68-484.86 410.40-485.84Q453.13-486.82 476.07-486.82Q479.98-486.82 484.86-482.91Q489.75-479 490.72-467.29L490.72-84.47Q490.72-63.96 500.73-54.69Q510.74-45.41 524.66-42.48Q538.57-39.55 550.29-38.09Q560.55-37.11 564.21-34.18Q567.87-31.25 567.87-20.02Q567.87-14.65 563.72-7.32Q559.57 0 551.27 0M437.50-570.80Q408.69-570.80 390.38-591.55Q372.07-612.30 372.07-642.58Q372.07-673.34 390.38-693.85Q408.69-714.36 437.50-714.36Q466.31-714.36 484.62-693.85Q502.93-673.34 502.93-642.58Q502.93-612.30 484.62-591.55Q466.31-570.80 437.50-570.80M798.34 14.65Q754.88 14.65 726.07 2.20Q697.27-10.25 682.86-37.60Q668.46-64.94 668.46-108.89L668.46-440.92L612.79-440.92Q606.93-441.41 604-447.02Q601.07-452.64 601.07-458.50Q601.07-479 614.26-479.49Q647.46-483.89 668.70-497.56Q689.94-511.23 703.86-540.28Q717.77-569.34 729-619.14Q730.47-626.46 736.33-629.15Q742.19-631.84 752.93-631.84Q764.65-631.84 768.07-628.91Q771.48-625.98 771.48-619.14L771.48-485.35L908.69-485.35Q914.55-484.86 917.48-479.74Q920.41-474.61 920.41-468.75Q920.41-457.52 916.26-449.22Q912.11-440.92 906.74-440.92L771.48-440.92L771.48-146Q771.48-104.49 779.05-82.76Q786.62-61.04 798.83-52.98Q811.04-44.92 823.73-44.92Q854.49-44.92 874.76-51.51Q895.02-58.11 913.09-69.82Q918.46-73.24 923.34-66.16Q928.22-59.08 930.91-50.29Q933.59-41.50 930.18-38.57Q919.43-28.81 898.19-16.36Q876.95-3.91 850.34 5.37Q823.73 14.65 798.34 14.65" fill="#F4F6FB"/></g>
</svg>
